# xmcd
#
# Track frame offsets:
#	150
#	41954
#	87772
#	137805
#	176979
#	228191
#
# Disc length: 3974 seconds
#
# Revision: 0
# Processed by: cddbd v1.5.2PL0 Copyright (c) Steve Scherf et al.
# Submitted via: EasyCDDAExtractor 16.0.8.2
#
DISCID=4d0f8406
DTITLE=Στανίτσας Θρασύβουλος - Μνημεία εκκλησ. μουσικής 4
DYEAR=1999
DGENRE=Βυζ. Εκκλησιαστική
TTITLE0=Εν τη βροντώση καμίνω [ήχ. α' Πέτρου Μπερεκέτη]
TTITLE1=Εν βυθώ κατέστρωσε ποτέ [ήχος λέγ. Πέτρου Μπερεκέτη]
TTITLE2=Εσείσθησαν λαοί [ήχ. δ' Άγια Πέτρου Μπερεκέτη]
TTITLE3=Ο άγγελος εβόα [ήχ. πλ. α' Πέτρου Μπερεκέτη]
TTITLE4=Έφριξε γη [ήχ. πλ. α' Παναγιώτου Χαλάτζογλου]
TTITLE5=Την δέησίν μου δέξαι την πενιχράν [ήχ. πλ. δ' Γεωργίου Κρητός]
EXTD=
EXTT0=
EXTT1=
EXTT2=
EXTT3=
EXTT4=
EXTT5=
PLAYORDER=
